<svg width="26" height="31" viewBox="0 0 26 31" fill="none" xmlns="http://www.w3.org/2000/svg">
<path d="M24.2092 17.6871L23.0471 16.1191C23.0471 16.1191 23.7518 14.136 23.9357 13.6267L15.9109 2.80019L17.6242 8.80292L11.7674 0.900635L13.7156 7.7259C10.1001 6.86769 6.1804 8.0925 3.70575 11.1251L3.87481 11.3511C4.9304 10.9121 6.04515 10.7996 7.19102 11.0392C1.75924 13.129 -0.639335 19.3305 1.63684 24.4675H1.92559C2.07672 23.0616 2.5866 22.0886 3.5864 21.301C4.0202 26.1948 8.00688 30.2959 13.3805 30.4206V29.7714C5.83316 27.2066 5.89875 18.6934 10.4055 16.3288C8.90221 18.4794 9.07126 20.5937 10.1137 22.7212L8.69934 23.2196L8.89511 23.7197C8.89511 23.7197 11.5713 23.6035 12.3182 23.5502C12.7523 23.8811 13.2554 24.8062 13.4038 25.0913L11.3846 26.3796L11.6991 26.8019C11.6991 26.8019 14.8476 25.9787 15.6773 25.7212C16.8681 26.7197 17.8155 27.9428 18.7822 29.4275C19.5467 28.9774 20.2503 28.4344 20.8744 27.8103C19.4757 25.6553 17.8406 24.3394 15.9901 23.4415L15.2895 23.8882C14.6697 23.0392 13.9509 22.289 13.1546 21.6499L12.259 21.9656C10.1519 19.4286 11.5804 15.7824 13.6405 16.024C13.6483 16.025 13.6554 16.0284 13.6628 16.0308V16.0372C13.7274 16.8785 13.0461 17.2162 12.3692 17.7098L12.7405 18.2106C13.4187 18.1838 14.1622 18.229 14.8557 18.354C14.8557 18.3547 14.8557 18.3547 14.8557 18.3554L13.5516 19.3053L13.9124 19.7922C17.3232 19.0726 20.9623 20.8743 22.3013 24.3877L22.8781 24.6727L23.4684 23.1812L24.9166 22.289L25.9803 18.5619L24.2089 17.6871H24.2092ZM22.0369 16.6175L19.7918 15.5089C19.314 15.2731 19.0365 14.7598 19.099 14.2288L19.2704 12.7763L22.0808 16.5679C22.0609 16.5904 22.0473 16.6057 22.0365 16.6175H22.0369Z" fill="#F5F1EB"/>
</svg>
